<svg xmlns="http://www.w3.org/2000/svg" viewBox="0 0 100 100">
  <circle cx="50" cy="50" r="48" fill="#25D366"/>
  <path d="M50 15c-19.3 0-35 15.7-35 35 0 6.2 1.6 12 4.4 17.1L15 85l18.3-4.3c5 2.6 10.7 4.1 16.7 4.1 19.3 0 35-15.7 35-35S69.3 15 50 15zm17.6 46.7c-.8 2.2-4.6 4.1-6.4 4.3-1.7.2-1.5.9-10.6-2.2-10.7-3.7-17.5-14.5-18-15.2-.5-.7-4.2-5.6-4.2-10.6 0-5 2.7-7.5 3.6-8.5.9-1 2-1.2 2.7-1.2.7 0 1.4 0 2 0 .6 0 1.5-.2 2.3 1.8.9 2 3 7.3 3.3 7.8.3.5.5 1.1.1 1.7-.4.7-.6 1-1.2 1.6-.6.6-1.2 1.3-1.7 1.7-.6.5-1.2 1-.5 2 .7 1 3.1 5 6.6 8.1 4.5 4 8.3 5.2 9.5 5.8 1.2.6 1.9.5 2.6-.3.7-.8 3-3.5 3.8-4.7.8-1.2 1.6-.9 2.7-.6 1.1.4 7 3.3 8.2 3.9 1.2.6 2 .9 2.3 1.4.3.5.3 2.8-.5 5z" fill="white"/>
</svg>

